<mxfile host="app.diagrams.net" modified="2023-08-19T13:02:55.204Z" agent="Mozilla/5.0 (Macintosh; Intel Mac OS X 10_15_7) AppleWebKit/537.36 (KHTML, like Gecko) Chrome/115.0.0.0 Safari/537.36" etag="2ErGAnhViNNWuH5RpkCi" version="21.6.8" type="github">
  <diagram id="C5RBs43oDa-KdzZeNtuy" name="Page-1">
    <mxGraphModel dx="1242" dy="790" grid="1" gridSize="10" guides="1" tooltips="1" connect="1" arrows="1" fold="1" page="1" pageScale="1" pageWidth="827" pageHeight="1169" math="0" shadow="0">
      <root>
        <mxCell id="WIyWlLk6GJQsqaUBKTNV-0" />
        <mxCell id="WIyWlLk6GJQsqaUBKTNV-1" parent="WIyWlLk6GJQsqaUBKTNV-0" />
        <mxCell id="zkfFHV4jXpPFQw0GAbJ--0" value="Customer" style="swimlane;fontStyle=2;align=center;verticalAlign=top;childLayout=stackLayout;horizontal=1;startSize=26;horizontalStack=0;resizeParent=1;resizeLast=0;collapsible=1;marginBottom=0;rounded=0;shadow=0;strokeWidth=1;labelBackgroundColor=none;" parent="WIyWlLk6GJQsqaUBKTNV-1" vertex="1">
          <mxGeometry x="115" y="10" width="180" height="144" as="geometry">
            <mxRectangle x="230" y="140" width="160" height="26" as="alternateBounds" />
          </mxGeometry>
        </mxCell>
        <mxCell id="zkfFHV4jXpPFQw0GAbJ--1" value="CustomerID : String " style="text;align=left;verticalAlign=top;spacingLeft=4;spacingRight=4;overflow=hidden;rotatable=0;points=[[0,0.5],[1,0.5]];portConstraint=eastwest;labelBackgroundColor=none;" parent="zkfFHV4jXpPFQw0GAbJ--0" vertex="1">
          <mxGeometry y="26" width="180" height="26" as="geometry" />
        </mxCell>
        <mxCell id="zkfFHV4jXpPFQw0GAbJ--2" value="Name : String " style="text;align=left;verticalAlign=top;spacingLeft=4;spacingRight=4;overflow=hidden;rotatable=0;points=[[0,0.5],[1,0.5]];portConstraint=eastwest;rounded=0;shadow=0;html=0;labelBackgroundColor=none;" parent="zkfFHV4jXpPFQw0GAbJ--0" vertex="1">
          <mxGeometry y="52" width="180" height="26" as="geometry" />
        </mxCell>
        <mxCell id="zkfFHV4jXpPFQw0GAbJ--3" value="Email Address : String  " style="text;align=left;verticalAlign=top;spacingLeft=4;spacingRight=4;overflow=hidden;rotatable=0;points=[[0,0.5],[1,0.5]];portConstraint=eastwest;rounded=0;shadow=0;html=0;labelBackgroundColor=none;" parent="zkfFHV4jXpPFQw0GAbJ--0" vertex="1">
          <mxGeometry y="78" width="180" height="22" as="geometry" />
        </mxCell>
        <mxCell id="zkfFHV4jXpPFQw0GAbJ--4" value="" style="line;html=1;strokeWidth=1;align=left;verticalAlign=middle;spacingTop=-1;spacingLeft=3;spacingRight=3;rotatable=0;labelPosition=right;points=[];portConstraint=eastwest;labelBackgroundColor=none;" parent="zkfFHV4jXpPFQw0GAbJ--0" vertex="1">
          <mxGeometry y="100" width="180" height="8" as="geometry" />
        </mxCell>
        <mxCell id="sAmozI2smeIFRXUNjbFJ-3" value="PlaceOrder(order : Order ) void&amp;nbsp;&amp;nbsp;" style="text;html=1;align=center;verticalAlign=middle;resizable=0;points=[];autosize=1;strokeColor=none;fillColor=none;" vertex="1" parent="zkfFHV4jXpPFQw0GAbJ--0">
          <mxGeometry y="108" width="180" height="30" as="geometry" />
        </mxCell>
        <mxCell id="sAmozI2smeIFRXUNjbFJ-5" value="Order" style="swimlane;fontStyle=2;align=center;verticalAlign=top;childLayout=stackLayout;horizontal=1;startSize=26;horizontalStack=0;resizeParent=1;resizeLast=0;collapsible=1;marginBottom=0;rounded=0;shadow=0;strokeWidth=1;labelBackgroundColor=none;" vertex="1" parent="WIyWlLk6GJQsqaUBKTNV-1">
          <mxGeometry x="70" y="250" width="270" height="182" as="geometry">
            <mxRectangle x="230" y="140" width="160" height="26" as="alternateBounds" />
          </mxGeometry>
        </mxCell>
        <mxCell id="sAmozI2smeIFRXUNjbFJ-6" value="Order Number : String " style="text;align=left;verticalAlign=top;spacingLeft=4;spacingRight=4;overflow=hidden;rotatable=0;points=[[0,0.5],[1,0.5]];portConstraint=eastwest;labelBackgroundColor=none;" vertex="1" parent="sAmozI2smeIFRXUNjbFJ-5">
          <mxGeometry y="26" width="270" height="26" as="geometry" />
        </mxCell>
        <mxCell id="sAmozI2smeIFRXUNjbFJ-7" value="Payment Date  : Date" style="text;align=left;verticalAlign=top;spacingLeft=4;spacingRight=4;overflow=hidden;rotatable=0;points=[[0,0.5],[1,0.5]];portConstraint=eastwest;rounded=0;shadow=0;html=0;labelBackgroundColor=none;" vertex="1" parent="sAmozI2smeIFRXUNjbFJ-5">
          <mxGeometry y="52" width="270" height="26" as="geometry" />
        </mxCell>
        <mxCell id="sAmozI2smeIFRXUNjbFJ-13" value="Payment Method : String (Cash, Card, Mobile ) " style="text;align=left;verticalAlign=top;spacingLeft=4;spacingRight=4;overflow=hidden;rotatable=0;points=[[0,0.5],[1,0.5]];portConstraint=eastwest;rounded=0;shadow=0;html=0;labelBackgroundColor=none;" vertex="1" parent="sAmozI2smeIFRXUNjbFJ-5">
          <mxGeometry y="78" width="270" height="22" as="geometry" />
        </mxCell>
        <mxCell id="sAmozI2smeIFRXUNjbFJ-14" value="Total Amount : double ( Total Amount &gt;= )  " style="text;align=left;verticalAlign=top;spacingLeft=4;spacingRight=4;overflow=hidden;rotatable=0;points=[[0,0.5],[1,0.5]];portConstraint=eastwest;rounded=0;shadow=0;html=0;labelBackgroundColor=none;" vertex="1" parent="sAmozI2smeIFRXUNjbFJ-5">
          <mxGeometry y="100" width="270" height="22" as="geometry" />
        </mxCell>
        <mxCell id="sAmozI2smeIFRXUNjbFJ-8" value="Item List : Item[]" style="text;align=left;verticalAlign=top;spacingLeft=4;spacingRight=4;overflow=hidden;rotatable=0;points=[[0,0.5],[1,0.5]];portConstraint=eastwest;rounded=0;shadow=0;html=0;labelBackgroundColor=none;" vertex="1" parent="sAmozI2smeIFRXUNjbFJ-5">
          <mxGeometry y="122" width="270" height="22" as="geometry" />
        </mxCell>
        <mxCell id="sAmozI2smeIFRXUNjbFJ-9" value="" style="line;html=1;strokeWidth=1;align=left;verticalAlign=middle;spacingTop=-1;spacingLeft=3;spacingRight=3;rotatable=0;labelPosition=right;points=[];portConstraint=eastwest;labelBackgroundColor=none;" vertex="1" parent="sAmozI2smeIFRXUNjbFJ-5">
          <mxGeometry y="144" width="270" height="8" as="geometry" />
        </mxCell>
        <mxCell id="sAmozI2smeIFRXUNjbFJ-17" value="AddItem( item : Item) void&amp;nbsp;" style="text;html=1;align=center;verticalAlign=middle;resizable=0;points=[];autosize=1;strokeColor=none;fillColor=none;" vertex="1" parent="sAmozI2smeIFRXUNjbFJ-5">
          <mxGeometry y="152" width="270" height="30" as="geometry" />
        </mxCell>
        <mxCell id="sAmozI2smeIFRXUNjbFJ-25" value="&lt;span style=&quot;font-weight: normal;&quot;&gt;{Item}&lt;/span&gt;" style="swimlane;whiteSpace=wrap;html=1;" vertex="1" parent="WIyWlLk6GJQsqaUBKTNV-1">
          <mxGeometry x="70" y="520" width="270" height="110" as="geometry" />
        </mxCell>
        <mxCell id="sAmozI2smeIFRXUNjbFJ-26" value="Name : String" style="text;html=1;align=center;verticalAlign=middle;resizable=0;points=[];autosize=1;strokeColor=none;fillColor=none;" vertex="1" parent="sAmozI2smeIFRXUNjbFJ-25">
          <mxGeometry y="20" width="100" height="30" as="geometry" />
        </mxCell>
        <mxCell id="sAmozI2smeIFRXUNjbFJ-30" value="Type : String ( Mobile, Service , Accessories)&amp;nbsp;" style="text;html=1;align=center;verticalAlign=middle;resizable=0;points=[];autosize=1;strokeColor=none;fillColor=none;" vertex="1" parent="sAmozI2smeIFRXUNjbFJ-25">
          <mxGeometry y="50" width="260" height="30" as="geometry" />
        </mxCell>
        <mxCell id="sAmozI2smeIFRXUNjbFJ-32" value="Price : double ( Price &amp;gt;= 0)&amp;nbsp;" style="text;html=1;align=center;verticalAlign=middle;resizable=0;points=[];autosize=1;strokeColor=none;fillColor=none;" vertex="1" parent="sAmozI2smeIFRXUNjbFJ-25">
          <mxGeometry y="80" width="170" height="30" as="geometry" />
        </mxCell>
        <mxCell id="sAmozI2smeIFRXUNjbFJ-34" value="&lt;span style=&quot;font-weight: normal;&quot;&gt;Mobile&lt;/span&gt;" style="swimlane;whiteSpace=wrap;html=1;align=center;" vertex="1" parent="WIyWlLk6GJQsqaUBKTNV-1">
          <mxGeometry x="640" y="60" width="130" height="80" as="geometry" />
        </mxCell>
        <mxCell id="sAmozI2smeIFRXUNjbFJ-37" value="Brand : String&amp;nbsp;" style="text;html=1;align=center;verticalAlign=middle;resizable=0;points=[];autosize=1;strokeColor=none;fillColor=none;" vertex="1" parent="sAmozI2smeIFRXUNjbFJ-34">
          <mxGeometry x="-10" y="20" width="100" height="30" as="geometry" />
        </mxCell>
        <mxCell id="sAmozI2smeIFRXUNjbFJ-38" value="Model : String&amp;nbsp;" style="text;html=1;align=center;verticalAlign=middle;resizable=0;points=[];autosize=1;strokeColor=none;fillColor=none;" vertex="1" parent="sAmozI2smeIFRXUNjbFJ-34">
          <mxGeometry x="-10" y="47" width="100" height="30" as="geometry" />
        </mxCell>
        <mxCell id="sAmozI2smeIFRXUNjbFJ-39" value="&lt;span style=&quot;font-weight: 400;&quot;&gt;Service&lt;/span&gt;" style="swimlane;whiteSpace=wrap;html=1;align=center;" vertex="1" parent="WIyWlLk6GJQsqaUBKTNV-1">
          <mxGeometry x="640" y="170" width="130" height="60" as="geometry" />
        </mxCell>
        <mxCell id="sAmozI2smeIFRXUNjbFJ-40" value="Service Type : String&amp;nbsp;" style="text;html=1;align=center;verticalAlign=middle;resizable=0;points=[];autosize=1;strokeColor=none;fillColor=none;" vertex="1" parent="sAmozI2smeIFRXUNjbFJ-39">
          <mxGeometry x="-10" y="25" width="140" height="30" as="geometry" />
        </mxCell>
        <mxCell id="sAmozI2smeIFRXUNjbFJ-42" value="&lt;span style=&quot;font-weight: normal;&quot;&gt;Mobile&lt;/span&gt;" style="swimlane;whiteSpace=wrap;html=1;align=center;" vertex="1" parent="WIyWlLk6GJQsqaUBKTNV-1">
          <mxGeometry x="640" y="260" width="140" height="80" as="geometry" />
        </mxCell>
        <mxCell id="sAmozI2smeIFRXUNjbFJ-43" value="Brand : String&amp;nbsp;" style="text;html=1;align=center;verticalAlign=middle;resizable=0;points=[];autosize=1;strokeColor=none;fillColor=none;" vertex="1" parent="sAmozI2smeIFRXUNjbFJ-42">
          <mxGeometry x="-10" y="20" width="100" height="30" as="geometry" />
        </mxCell>
        <mxCell id="sAmozI2smeIFRXUNjbFJ-44" value="Kind : String&amp;nbsp;" style="text;html=1;align=center;verticalAlign=middle;resizable=0;points=[];autosize=1;strokeColor=none;fillColor=none;" vertex="1" parent="sAmozI2smeIFRXUNjbFJ-42">
          <mxGeometry x="-5" y="47" width="90" height="30" as="geometry" />
        </mxCell>
        <mxCell id="sAmozI2smeIFRXUNjbFJ-46" style="edgeStyle=orthogonalEdgeStyle;rounded=0;orthogonalLoop=1;jettySize=auto;html=1;entryX=1;entryY=0.5;entryDx=0;entryDy=0;" edge="1" parent="WIyWlLk6GJQsqaUBKTNV-1" source="sAmozI2smeIFRXUNjbFJ-43" target="sAmozI2smeIFRXUNjbFJ-25">
          <mxGeometry relative="1" as="geometry" />
        </mxCell>
        <mxCell id="sAmozI2smeIFRXUNjbFJ-47" style="edgeStyle=orthogonalEdgeStyle;rounded=0;orthogonalLoop=1;jettySize=auto;html=1;entryX=1;entryY=0.5;entryDx=0;entryDy=0;" edge="1" parent="WIyWlLk6GJQsqaUBKTNV-1" source="sAmozI2smeIFRXUNjbFJ-40" target="sAmozI2smeIFRXUNjbFJ-25">
          <mxGeometry relative="1" as="geometry" />
        </mxCell>
        <mxCell id="sAmozI2smeIFRXUNjbFJ-49" style="edgeStyle=orthogonalEdgeStyle;rounded=0;orthogonalLoop=1;jettySize=auto;html=1;entryX=1;entryY=0.5;entryDx=0;entryDy=0;" edge="1" parent="WIyWlLk6GJQsqaUBKTNV-1" source="sAmozI2smeIFRXUNjbFJ-38" target="sAmozI2smeIFRXUNjbFJ-25">
          <mxGeometry relative="1" as="geometry" />
        </mxCell>
        <mxCell id="sAmozI2smeIFRXUNjbFJ-50" value="IS A" style="text;html=1;align=center;verticalAlign=middle;resizable=0;points=[];autosize=1;strokeColor=none;fillColor=none;" vertex="1" parent="WIyWlLk6GJQsqaUBKTNV-1">
          <mxGeometry x="430" y="550" width="50" height="30" as="geometry" />
        </mxCell>
        <mxCell id="sAmozI2smeIFRXUNjbFJ-51" value="" style="edgeStyle=none;rounded=0;orthogonalLoop=1;jettySize=auto;html=1;entryX=0.5;entryY=0;entryDx=0;entryDy=0;verticalAlign=bottom;horizontal=0;shape=link;" edge="1" parent="WIyWlLk6GJQsqaUBKTNV-1" source="sAmozI2smeIFRXUNjbFJ-17" target="sAmozI2smeIFRXUNjbFJ-25">
          <mxGeometry relative="1" as="geometry" />
        </mxCell>
        <mxCell id="sAmozI2smeIFRXUNjbFJ-52" value="" style="edgeStyle=none;rounded=0;orthogonalLoop=1;jettySize=auto;html=1;entryX=0.5;entryY=0;entryDx=0;entryDy=0;shape=link;" edge="1" parent="WIyWlLk6GJQsqaUBKTNV-1" source="zkfFHV4jXpPFQw0GAbJ--0" target="sAmozI2smeIFRXUNjbFJ-5">
          <mxGeometry relative="1" as="geometry" />
        </mxCell>
        <mxCell id="sAmozI2smeIFRXUNjbFJ-54" value="Make" style="text;html=1;align=center;verticalAlign=middle;resizable=0;points=[];autosize=1;strokeColor=none;fillColor=none;" vertex="1" parent="WIyWlLk6GJQsqaUBKTNV-1">
          <mxGeometry x="160" y="190" width="50" height="30" as="geometry" />
        </mxCell>
        <mxCell id="sAmozI2smeIFRXUNjbFJ-55" value="1...*" style="text;html=1;align=center;verticalAlign=middle;resizable=0;points=[];autosize=1;strokeColor=none;fillColor=none;" vertex="1" parent="WIyWlLk6GJQsqaUBKTNV-1">
          <mxGeometry x="210" y="220" width="40" height="30" as="geometry" />
        </mxCell>
        <mxCell id="sAmozI2smeIFRXUNjbFJ-57" value="1...*" style="text;html=1;align=center;verticalAlign=middle;resizable=0;points=[];autosize=1;strokeColor=none;fillColor=none;" vertex="1" parent="WIyWlLk6GJQsqaUBKTNV-1">
          <mxGeometry x="210" y="490" width="40" height="30" as="geometry" />
        </mxCell>
        <mxCell id="sAmozI2smeIFRXUNjbFJ-58" value="1" style="text;html=1;align=center;verticalAlign=middle;resizable=0;points=[];autosize=1;strokeColor=none;fillColor=none;" vertex="1" parent="WIyWlLk6GJQsqaUBKTNV-1">
          <mxGeometry x="210" y="154" width="30" height="30" as="geometry" />
        </mxCell>
        <mxCell id="sAmozI2smeIFRXUNjbFJ-59" value="1" style="text;html=1;align=center;verticalAlign=middle;resizable=0;points=[];autosize=1;strokeColor=none;fillColor=none;" vertex="1" parent="WIyWlLk6GJQsqaUBKTNV-1">
          <mxGeometry x="210" y="432" width="30" height="30" as="geometry" />
        </mxCell>
        <mxCell id="sAmozI2smeIFRXUNjbFJ-61" value="1" style="text;html=1;align=center;verticalAlign=middle;resizable=0;points=[];autosize=1;strokeColor=none;fillColor=none;" vertex="1" parent="WIyWlLk6GJQsqaUBKTNV-1">
          <mxGeometry x="340" y="550" width="30" height="30" as="geometry" />
        </mxCell>
        <mxCell id="sAmozI2smeIFRXUNjbFJ-62" value="1" style="text;html=1;align=center;verticalAlign=middle;resizable=0;points=[];autosize=1;strokeColor=none;fillColor=none;" vertex="1" parent="WIyWlLk6GJQsqaUBKTNV-1">
          <mxGeometry x="610" y="270" width="30" height="30" as="geometry" />
        </mxCell>
        <mxCell id="sAmozI2smeIFRXUNjbFJ-63" value="1" style="text;html=1;align=center;verticalAlign=middle;resizable=0;points=[];autosize=1;strokeColor=none;fillColor=none;" vertex="1" parent="WIyWlLk6GJQsqaUBKTNV-1">
          <mxGeometry x="610" y="180" width="30" height="30" as="geometry" />
        </mxCell>
        <mxCell id="sAmozI2smeIFRXUNjbFJ-64" value="1" style="text;html=1;align=center;verticalAlign=middle;resizable=0;points=[];autosize=1;strokeColor=none;fillColor=none;" vertex="1" parent="WIyWlLk6GJQsqaUBKTNV-1">
          <mxGeometry x="610" y="90" width="30" height="30" as="geometry" />
        </mxCell>
        <mxCell id="sAmozI2smeIFRXUNjbFJ-65" value="contain" style="text;html=1;align=center;verticalAlign=middle;resizable=0;points=[];autosize=1;strokeColor=none;fillColor=none;" vertex="1" parent="WIyWlLk6GJQsqaUBKTNV-1">
          <mxGeometry x="140" y="462" width="60" height="30" as="geometry" />
        </mxCell>
      </root>
    </mxGraphModel>
  </diagram>
</mxfile>
